<svg version="1.1" xmlns="http://www.w3.org/2000/svg" xmlns:xlink="http://www.w3.org/1999/xlink" width="597" height="413"><defs/><g><text fill="#eeeeee" stroke="none" font-family="Arial" font-size="24px" font-style="normal" font-weight="normal" text-decoration="none" x="0" y="0">UNREGISTERED</text><text fill="#eeeeee" stroke="none" font-family="Arial" font-size="24px" font-style="normal" font-weight="normal" text-decoration="none" x="0" y="30">UNREGISTERED</text><text fill="#eeeeee" stroke="none" font-family="Arial" font-size="24px" font-style="normal" font-weight="normal" text-decoration="none" x="0" y="60">UNREGISTERED</text><text fill="#eeeeee" stroke="none" font-family="Arial" font-size="24px" font-style="normal" font-weight="normal" text-decoration="none" x="0" y="90">UNREGISTERED</text><text fill="#eeeeee" stroke="none" font-family="Arial" font-size="24px" font-style="normal" font-weight="normal" text-decoration="none" x="0" y="120">UNREGISTERED</text><text fill="#eeeeee" stroke="none" font-family="Arial" font-size="24px" font-style="normal" font-weight="normal" text-decoration="none" x="0" y="150">UNREGISTERED</text><text fill="#eeeeee" stroke="none" font-family="Arial" font-size="24px" font-style="normal" font-weight="normal" text-decoration="none" x="0" y="180">UNREGISTERED</text><text fill="#eeeeee" stroke="none" font-family="Arial" font-size="24px" font-style="normal" font-weight="normal" text-decoration="none" x="0" y="210">UNREGISTERED</text><text fill="#eeeeee" stroke="none" font-family="Arial" font-size="24px" font-style="normal" font-weight="normal" text-decoration="none" x="0" y="240">UNREGISTERED</text><text fill="#eeeeee" stroke="none" font-family="Arial" font-size="24px" font-style="normal" font-weight="normal" text-decoration="none" x="0" y="270">UNREGISTERED</text><text fill="#eeeeee" stroke="none" font-family="Arial" font-size="24px" font-style="normal" font-weight="normal" text-decoration="none" x="0" y="300">UNREGISTERED</text><text fill="#eeeeee" stroke="none" font-family="Arial" font-size="24px" font-style="normal" font-weight="normal" text-decoration="none" x="0" y="330">UNREGISTERED</text><text fill="#eeeeee" stroke="none" font-family="Arial" font-size="24px" font-style="normal" font-weight="normal" text-decoration="none" x="0" y="360">UNREGISTERED</text><text fill="#eeeeee" stroke="none" font-family="Arial" font-size="24px" font-style="normal" font-weight="normal" text-decoration="none" x="0" y="390">UNREGISTERED</text><text fill="#eeeeee" stroke="none" font-family="Arial" font-size="24px" font-style="normal" font-weight="normal" text-decoration="none" x="200" y="0">UNREGISTERED</text><text fill="#eeeeee" stroke="none" font-family="Arial" font-size="24px" font-style="normal" font-weight="normal" text-decoration="none" x="200" y="30">UNREGISTERED</text><text fill="#eeeeee" stroke="none" font-family="Arial" font-size="24px" font-style="normal" font-weight="normal" text-decoration="none" x="200" y="60">UNREGISTERED</text><text fill="#eeeeee" stroke="none" font-family="Arial" font-size="24px" font-style="normal" font-weight="normal" text-decoration="none" x="200" y="90">UNREGISTERED</text><text fill="#eeeeee" stroke="none" font-family="Arial" font-size="24px" font-style="normal" font-weight="normal" text-decoration="none" x="200" y="120">UNREGISTERED</text><text fill="#eeeeee" stroke="none" font-family="Arial" font-size="24px" font-style="normal" font-weight="normal" text-decoration="none" x="200" y="150">UNREGISTERED</text><text fill="#eeeeee" stroke="none" font-family="Arial" font-size="24px" font-style="normal" font-weight="normal" text-decoration="none" x="200" y="180">UNREGISTERED</text><text fill="#eeeeee" stroke="none" font-family="Arial" font-size="24px" font-style="normal" font-weight="normal" text-decoration="none" x="200" y="210">UNREGISTERED</text><text fill="#eeeeee" stroke="none" font-family="Arial" font-size="24px" font-style="normal" font-weight="normal" text-decoration="none" x="200" y="240">UNREGISTERED</text><text fill="#eeeeee" stroke="none" font-family="Arial" font-size="24px" font-style="normal" font-weight="normal" text-decoration="none" x="200" y="270">UNREGISTERED</text><text fill="#eeeeee" stroke="none" font-family="Arial" font-size="24px" font-style="normal" font-weight="normal" text-decoration="none" x="200" y="300">UNREGISTERED</text><text fill="#eeeeee" stroke="none" font-family="Arial" font-size="24px" font-style="normal" font-weight="normal" text-decoration="none" x="200" y="330">UNREGISTERED</text><text fill="#eeeeee" stroke="none" font-family="Arial" font-size="24px" font-style="normal" font-weight="normal" text-decoration="none" x="200" y="360">UNREGISTERED</text><text fill="#eeeeee" stroke="none" font-family="Arial" font-size="24px" font-style="normal" font-weight="normal" text-decoration="none" x="200" y="390">UNREGISTERED</text><text fill="#eeeeee" stroke="none" font-family="Arial" font-size="24px" font-style="normal" font-weight="normal" text-decoration="none" x="400" y="0">UNREGISTERED</text><text fill="#eeeeee" stroke="none" font-family="Arial" font-size="24px" font-style="normal" font-weight="normal" text-decoration="none" x="400" y="30">UNREGISTERED</text><text fill="#eeeeee" stroke="none" font-family="Arial" font-size="24px" font-style="normal" font-weight="normal" text-decoration="none" x="400" y="60">UNREGISTERED</text><text fill="#eeeeee" stroke="none" font-family="Arial" font-size="24px" font-style="normal" font-weight="normal" text-decoration="none" x="400" y="90">UNREGISTERED</text><text fill="#eeeeee" stroke="none" font-family="Arial" font-size="24px" font-style="normal" font-weight="normal" text-decoration="none" x="400" y="120">UNREGISTERED</text><text fill="#eeeeee" stroke="none" font-family="Arial" font-size="24px" font-style="normal" font-weight="normal" text-decoration="none" x="400" y="150">UNREGISTERED</text><text fill="#eeeeee" stroke="none" font-family="Arial" font-size="24px" font-style="normal" font-weight="normal" text-decoration="none" x="400" y="180">UNREGISTERED</text><text fill="#eeeeee" stroke="none" font-family="Arial" font-size="24px" font-style="normal" font-weight="normal" text-decoration="none" x="400" y="210">UNREGISTERED</text><text fill="#eeeeee" stroke="none" font-family="Arial" font-size="24px" font-style="normal" font-weight="normal" text-decoration="none" x="400" y="240">UNREGISTERED</text><text fill="#eeeeee" stroke="none" font-family="Arial" font-size="24px" font-style="normal" font-weight="normal" text-decoration="none" x="400" y="270">UNREGISTERED</text><text fill="#eeeeee" stroke="none" font-family="Arial" font-size="24px" font-style="normal" font-weight="normal" text-decoration="none" x="400" y="300">UNREGISTERED</text><text fill="#eeeeee" stroke="none" font-family="Arial" font-size="24px" font-style="normal" font-weight="normal" text-decoration="none" x="400" y="330">UNREGISTERED</text><text fill="#eeeeee" stroke="none" font-family="Arial" font-size="24px" font-style="normal" font-weight="normal" text-decoration="none" x="400" y="360">UNREGISTERED</text><text fill="#eeeeee" stroke="none" font-family="Arial" font-size="24px" font-style="normal" font-weight="normal" text-decoration="none" x="400" y="390">UNREGISTERED</text><g transform="translate(-78,-294) scale(1,1)"><rect fill="#C0C0C0" stroke="none" x="95" y="343" width="104" height="130" opacity="0.2"/></g><g transform="translate(-78,-294) scale(1,1)"><rect fill="#ffffff" stroke="none" x="88" y="336" width="104" height="130"/></g><g transform="translate(-78,-294) scale(1,1)"><path fill="none" stroke="#000000" d="M 88 336 L 192 336 L 192 466 L 88 466 L 88 336 Z Z" stroke-miterlimit="10"/></g><g transform="translate(-78,-294) scale(1,1)"><path fill="none" stroke="#000000" d="M 88 361 L 192 361" stroke-miterlimit="10"/></g><g transform="translate(-78,-294) scale(1,1)"><path fill="none" stroke="#000000" d="M 88 429 L 192 429" stroke-miterlimit="10"/></g><g transform="translate(-78,-294) scale(1,1)"><g><path fill="none" stroke="none"/><text fill="#000000" stroke="none" font-family="Arial" font-size="13px" font-style="normal" font-weight="bold" text-decoration="none" x="125.54638671875" y="354">User</text></g></g><g transform="translate(-78,-294) scale(1,1)"><g><path fill="none" stroke="none"/><text fill="#000000" stroke="none" font-family="Arial" font-size="13px" font-style="normal" font-weight="normal" text-decoration="none" x="93" y="377">+Name</text></g></g><g transform="translate(-78,-294) scale(1,1)"><g><path fill="none" stroke="none"/><text fill="#000000" stroke="none" font-family="Arial" font-size="13px" font-style="normal" font-weight="normal" text-decoration="none" x="93" y="392">+Email</text></g></g><g transform="translate(-78,-294) scale(1,1)"><g><path fill="none" stroke="none"/><text fill="#000000" stroke="none" font-family="Arial" font-size="13px" font-style="normal" font-weight="normal" text-decoration="none" x="93" y="407">+PhoneNo</text></g></g><g transform="translate(-78,-294) scale(1,1)"><g><path fill="none" stroke="none"/><text fill="#000000" stroke="none" font-family="Arial" font-size="13px" font-style="normal" font-weight="normal" text-decoration="none" x="93" y="422">+Attribute1</text></g></g><g transform="translate(-78,-294) scale(1,1)"><g><path fill="none" stroke="none"/><text fill="#000000" stroke="none" font-family="Arial" font-size="13px" font-style="normal" font-weight="normal" text-decoration="none" x="93" y="445">+Login()</text></g></g><g transform="translate(-78,-294) scale(1,1)"><g><path fill="none" stroke="none"/><text fill="#000000" stroke="none" font-family="Arial" font-size="13px" font-style="normal" font-weight="normal" text-decoration="none" x="93" y="460">+SignUp()</text></g></g><g transform="translate(-78,-294) scale(1,1)"><rect fill="#C0C0C0" stroke="none" x="535" y="343" width="106.17626953125" height="100" opacity="0.2"/></g><g transform="translate(-78,-294) scale(1,1)"><rect fill="#ffffff" stroke="none" x="528" y="336" width="106.17626953125" height="100"/></g><g transform="translate(-78,-294) scale(1,1)"><path fill="none" stroke="#000000" d="M 528 336 L 634.17626953125 336 L 634.17626953125 436 L 528 436 L 528 336 Z Z" stroke-miterlimit="10"/></g><g transform="translate(-78,-294) scale(1,1)"><path fill="none" stroke="#000000" d="M 528 361 L 634.17626953125 361" stroke-miterlimit="10"/></g><g transform="translate(-78,-294) scale(1,1)"><path fill="none" stroke="#000000" d="M 528 399 L 634.17626953125 399" stroke-miterlimit="10"/></g><g transform="translate(-78,-294) scale(1,1)"><g><path fill="none" stroke="none"/><text fill="#000000" stroke="none" font-family="Arial" font-size="13px" font-style="normal" font-weight="bold" text-decoration="none" x="553.27587890625" y="354">Librarian</text></g></g><g transform="translate(-78,-294) scale(1,1)"><g><path fill="none" stroke="none"/><text fill="#000000" stroke="none" font-family="Arial" font-size="13px" font-style="normal" font-weight="normal" text-decoration="none" x="533" y="377">+Name</text></g></g><g transform="translate(-78,-294) scale(1,1)"><g><path fill="none" stroke="none"/><text fill="#000000" stroke="none" font-family="Arial" font-size="13px" font-style="normal" font-weight="normal" text-decoration="none" x="533" y="392">+PhoneNo</text></g></g><g transform="translate(-78,-294) scale(1,1)"><g><path fill="none" stroke="none"/><text fill="#000000" stroke="none" font-family="Arial" font-size="13px" font-style="normal" font-weight="normal" text-decoration="none" x="533" y="415">+AddBook()</text></g></g><g transform="translate(-78,-294) scale(1,1)"><g><path fill="none" stroke="none"/><text fill="#000000" stroke="none" font-family="Arial" font-size="13px" font-style="normal" font-weight="normal" text-decoration="none" x="533" y="430">+RemoveBookl()</text></g></g><g transform="translate(-78,-294) scale(1,1)"><rect fill="#C0C0C0" stroke="none" x="455" y="559" width="151.33349609375" height="102" opacity="0.2"/></g><g transform="translate(-78,-294) scale(1,1)"><rect fill="#ffffff" stroke="none" x="448" y="552" width="151.33349609375" height="102"/></g><g transform="translate(-78,-294) scale(1,1)"><path fill="none" stroke="#000000" d="M 448 552 L 599.33349609375 552 L 599.33349609375 654 L 448 654 L 448 552 Z Z" stroke-miterlimit="10"/></g><g transform="translate(-78,-294) scale(1,1)"><path fill="none" stroke="#000000" d="M 448 577 L 599.33349609375 577" stroke-miterlimit="10"/></g><g transform="translate(-78,-294) scale(1,1)"><path fill="none" stroke="#000000" d="M 448 645 L 599.33349609375 645" stroke-miterlimit="10"/></g><g transform="translate(-78,-294) scale(1,1)"><g><path fill="none" stroke="none"/><text fill="#000000" stroke="none" font-family="Arial" font-size="13px" font-style="normal" font-weight="bold" text-decoration="none" x="452.5" y="570">Central Library System</text></g></g><g transform="translate(-78,-294) scale(1,1)"><g><path fill="none" stroke="none"/><text fill="#000000" stroke="none" font-family="Arial" font-size="13px" font-style="normal" font-weight="normal" text-decoration="none" x="453" y="593">+BookID</text></g></g><g transform="translate(-78,-294) scale(1,1)"><g><path fill="none" stroke="none"/><text fill="#000000" stroke="none" font-family="Arial" font-size="13px" font-style="normal" font-weight="normal" text-decoration="none" x="453" y="608">+Author</text></g></g><g transform="translate(-78,-294) scale(1,1)"><g><path fill="none" stroke="none"/><text fill="#000000" stroke="none" font-family="Arial" font-size="13px" font-style="normal" font-weight="normal" text-decoration="none" x="453" y="623">+BookName</text></g></g><g transform="translate(-78,-294) scale(1,1)"><g><path fill="none" stroke="none"/><text fill="#000000" stroke="none" font-family="Arial" font-size="13px" font-style="normal" font-weight="normal" text-decoration="none" x="453" y="638">+BookPrice</text></g></g><g transform="translate(-78,-294) scale(1,1)"><rect fill="#C0C0C0" stroke="none" x="103" y="575" width="117.37353515625" height="87" opacity="0.2"/></g><g transform="translate(-78,-294) scale(1,1)"><rect fill="#ffffff" stroke="none" x="96" y="568" width="117.37353515625" height="87"/></g><g transform="translate(-78,-294) scale(1,1)"><path fill="none" stroke="#000000" d="M 96 568 L 213.37353515625 568 L 213.37353515625 655 L 96 655 L 96 568 Z Z" stroke-miterlimit="10"/></g><g transform="translate(-78,-294) scale(1,1)"><path fill="none" stroke="#000000" d="M 96 593 L 213.37353515625 593" stroke-miterlimit="10"/></g><g transform="translate(-78,-294) scale(1,1)"><path fill="none" stroke="#000000" d="M 96 603 L 213.37353515625 603" stroke-miterlimit="10"/></g><g transform="translate(-78,-294) scale(1,1)"><g><path fill="none" stroke="none"/><text fill="#000000" stroke="none" font-family="Arial" font-size="13px" font-style="normal" font-weight="bold" text-decoration="none" x="125.430419921875" y="586">Inventory</text></g></g><g transform="translate(-78,-294) scale(1,1)"><g><path fill="none" stroke="none"/><text fill="#000000" stroke="none" font-family="Arial" font-size="13px" font-style="normal" font-weight="normal" text-decoration="none" x="101" y="619">+Update()</text></g></g><g transform="translate(-78,-294) scale(1,1)"><g><path fill="none" stroke="none"/><text fill="#000000" stroke="none" font-family="Arial" font-size="13px" font-style="normal" font-weight="normal" text-decoration="none" x="101" y="634">+Delete()</text></g></g><g transform="translate(-78,-294) scale(1,1)"><g><path fill="none" stroke="none"/><text fill="#000000" stroke="none" font-family="Arial" font-size="13px" font-style="normal" font-weight="normal" text-decoration="none" x="101" y="649">+Add()</text></g></g><g transform="translate(-78,-294) scale(1,1)"><path fill="none" stroke="#000000" d="M 140 336 L 140 316 L 222 316 L 222 488 L 523 488 L 523 552" stroke-miterlimit="10" stroke-dasharray="3"/></g><g transform="translate(-78,-294) scale(1,1)"><path fill="none" stroke="#000000" d="M 518.790482243984 541.8373251423759 L 523 552 L 527.209517756016 541.8373251423759" stroke-miterlimit="10"/></g><g transform="translate(-78,-294) scale(1,1)"><path fill="none" stroke="#000000" d="M 140 336 L 140 316 L 222 316 L 222 384 L 528 384" stroke-miterlimit="10" stroke-dasharray="3"/></g><g transform="translate(-78,-294) scale(1,1)"><path fill="none" stroke="#000000" d="M 517.8373251423759 388.209517756016 L 528 384 L 517.8373251423758 379.790482243984" stroke-miterlimit="10"/></g><g transform="translate(-78,-294) scale(1,1)"><path fill="none" stroke="#000000" d="M 573 336 L 573 324 L 576 324 L 576 304 L 320 304 L 320 568 L 213 568" stroke-miterlimit="10" stroke-dasharray="3"/></g><g transform="translate(-78,-294) scale(1,1)"><path fill="none" stroke="#000000" d="M 223.16267485762415 563.790482243984 L 213 568 L 223.16267485762415 572.209517756016" stroke-miterlimit="10"/></g><g transform="translate(-78,-294) scale(1,1)"><path fill="none" stroke="#000000" d="M 581 336 L 581 316 L 664 316 L 664 603 L 599 603" stroke-miterlimit="10" stroke-dasharray="3"/></g><g transform="translate(-78,-294) scale(1,1)"><path fill="none" stroke="#000000" d="M 609.1626748576241 598.790482243984 L 599 603 L 609.1626748576241 607.209517756016" stroke-miterlimit="10"/></g><g transform="translate(-78,-294) scale(1,1)"><path fill="none" stroke="#000000" d="M 523 552 L 523 532 L 628 532 L 628 696 L 213 696 L 213 655" stroke-miterlimit="10" stroke-dasharray="3"/></g><g transform="translate(-78,-294) scale(1,1)"><path fill="none" stroke="#000000" d="M 217.209517756016 665.1626748576241 L 213 655 L 208.790482243984 665.1626748576241" stroke-miterlimit="10"/></g></g></svg>